<svg xmlns="http://www.w3.org/2000/svg" viewBox="0 0 64 64" id="roof">
  <path fill="#0288d1" d="m43,23v1.84076c5.2525.5506,10.26038,2.63855,7,9.15924-.07489.14984-.15533.27429-.23242.41406l3.23242,2.58594v-14h-10Z"></path>
  <path fill="#92b4ff" d="m34.37457,45.62543c.38611.70935.62543,1.51013.62543,2.37457,0,2.76141-2.23859,5-5,5-.86444,0-1.66522-.23932-2.37457-.62543.84729,1.55658,2.4776,2.62543,4.37457,2.62543,2.76141,0,5-2.23859,5-5,0-1.89697-1.06885-3.52728-2.62543-4.37457Z"></path>
  <path fill="#90caf9" d="m48.92755,9.71881c.0426-.23395.07245-.4726.07245-.71881,0-1.14624-.48828-2.17279-1.2608-2.9021.21515,4.31635-4.7392,2.9021-4.7392,2.9021-1,4-4,1-4,1-3,1-4-1-4-1-1.63763,1.63763-4.76074,1.78247-7.26361,1.57892.8764,1.44556,2.44971,2.42108,4.26361,2.42108,1.06427,0,2.04639-.33801,2.85712-.90479.54468.55701,1.30231.90479,2.14288.90479.39502,0,.77014-.08087,1.11554-.2196.34521,1.27588,1.49939,2.2196,2.88446,2.2196,1.37091,0,2.51422-.92511,2.8725-2.18103.09473.02802.18469.06665.28223.08765.38611,1.21063,1.50659,2.09338,2.84528,2.09338,1.65686,0,3-1.34314,3-3,0-.91882-.42194-1.7309-1.07245-2.28119Z"></path>
  <path fill="#0288d1" d="m32,38.31836l-25,14.65527v6.02637h50v-6.02637l-25-14.65527Zm0,18.68164c-3.86597,0-7-3.13403-7-7s3.13403-7,7-7,7,3.13397,7,7-3.13403,7-7,7Z"></path>
  <rect width="14" height="4" x="41" y="19" fill="#d5e8f9" rx="2" ry="2"></rect>
  <circle cx="13" cy="23" r="2" fill="#d5e8f9"></circle>
  <circle cx="5" cy="13" r="2" fill="#d5e8f9"></circle>
  <circle cx="23" cy="17" r="2" fill="#d5e8f9"></circle>
  <circle cx="18" cy="7" r="2" fill="#d5e8f9"></circle>
  <circle cx="55" cy="5" r="2" fill="#d5e8f9"></circle>
  <circle cx="59" cy="14" r="2" fill="#d5e8f9"></circle>
  <path fill="#123551" d="M32 42c-4.41113 0-8 3.58887-8 8s3.58887 8 8 8 8-3.58887 8-8-3.58887-8-8-8zm5.90967 7h-4.90967v-4.90967c2.50714.42328 4.48639 2.40253 4.90967 4.90967zm-6.90967-4.90967v4.90967h-4.90967c.42328-2.50714 2.40253-4.48639 4.90967-4.90967zm-4.90967 6.90967h4.90967v4.90967c-2.50714-.42328-4.48639-2.40253-4.90967-4.90967zm6.90967 4.90967v-4.90967h4.90967c-.42328 2.50714-2.40253 4.48639-4.90967 4.90967zM13 26c-1.6543 0-3-1.3457-3-3s1.3457-3 3-3 3 1.3457 3 3-1.3457 3-3 3zm0-4c-.55127 0-1 .44873-1 1s.44873 1 1 1 1-.44873 1-1-.44873-1-1-1zM5 16c-1.6543 0-3-1.3457-3-3s1.3457-3 3-3 3 1.3457 3 3-1.3457 3-3 3zm0-4c-.55127 0-1 .44873-1 1s.44873 1 1 1 1-.44873 1-1-.44873-1-1-1zM23 20c-1.6543 0-3-1.3457-3-3s1.3457-3 3-3 3 1.3457 3 3-1.3457 3-3 3zm0-4c-.55127 0-1 .44873-1 1s.44873 1 1 1 1-.44873 1-1-.44873-1-1-1zM18 10c-1.6543 0-3-1.3457-3-3s1.3457-3 3-3 3 1.3457 3 3-1.3457 3-3 3zm0-4c-.55127 0-1 .44873-1 1s.44873 1 1 1 1-.44873 1-1-.44873-1-1-1zM47 16c-1.18066 0-2.26318-.5166-3.00342-1.37012-.74219.84814-1.82764 1.37012-2.99658 1.37012-1.45752 0-2.77539-.80225-3.47168-2.03613-.97852.13135-1.9624-.10498-2.76074-.646-.85352.44824-1.79736.68213-2.76758.68213-3.30859 0-6-2.69141-6-6s2.69141-6 6-6c1.33252 0 2.62354.45654 3.67139 1.27734.9082-.81299 2.09131-1.27734 3.32861-1.27734 1.72803 0 3.30762.90283 4.20996 2.33057.56689-.21777 1.17188-.33057 1.79004-.33057 2.75684 0 5 2.24316 5 5 0 .1167-.00488.23438-.01514.35596.65088.729 1.01514 1.66602 1.01514 2.64404 0 2.20557-1.79443 4-4 4zm-3.12744-4.18115c.09619 0 .19287.01367.28662.04199l.14404.04736c.3501.0752.69531.35303.8042.69434.2666.83594 1.02734 1.39746 1.89258 1.39746 1.10303 0 2-.89697 2-2 0-.57861-.26172-1.13184-.71826-1.51807-.27295-.23096-.40186-.58984-.33789-.94189.03174-.17578.05615-.35498.05615-.54004 0-1.6543-1.3457-3-3-3-.60156 0-1.18213.17773-1.67871.51367-.25635.17383-.5791.21924-.87451.12109-.29492-.09717-.52734-.32617-.62988-.61914-.42188-1.20557-1.55371-2.01562-2.81689-2.01562-.96973 0-1.88574.47852-2.4502 1.27979-.17627.25-.45703.40527-.76221.42236-.31299.01562-.60205-.10742-.80469-.33643-.77832-.88086-1.8374-1.36572-2.98291-1.36572-2.20557 0-4 1.79443-4 4s1.79443 4 4 4c.81641 0 1.60645-.25049 2.28369-.72412.40137-.28076.9458-.22949 1.28809.12012.55615.56934 1.39697.76855 2.17188.45605.26611-.10498.56348-.09375.81836.0332.25537.12744.44434.3584.51904.63379.23584.87207 1.0249 1.48096 1.91895 1.48096.88037 0 1.6665-.59863 1.91113-1.45557.07324-.25732.24658-.47412.48096-.60254.14844-.08154.31396-.12305.48047-.12305zM55 8c-1.6543 0-3-1.3457-3-3s1.3457-3 3-3 3 1.3457 3 3-1.3457 3-3 3zm0-4c-.55127 0-1 .44873-1 1s.44873 1 1 1 1-.44873 1-1-.44873-1-1-1z"></path>
  <path fill="#d5e8f9" d="m58.0343,37.26147l-6.70551-3.93079c-.58771-1.16132-1.35016-2.35205-2.3288-3.33069-1.54578-1.54578-4.94879-2.29407-7.88593-2.65729l-6.07977-3.56396c-1.87378-1.09845-4.19482-1.09845-6.0686,0l-1.37012.80316c-3.18909-.04828-7.78461.85181-10.02075,5.87427l-.65118.38171c-.90912.0993-1.88397.16211-2.92365.16211-4.04889,0-4.90692,2.72858-5.03894,4.50555l-2.99536,1.75592c-1.83704,1.0769-2.9657,3.04675-2.9657,5.17621v11.56232c0,1.65686,1.34314,3,3,3s3-1.34314,3-3v-9c0-1.10461.89545-2,2-2s2,.89539,2,2v6c0,1.10455.89545,2,2,2s2-.89545,2-2v-7.76923c0-2.12946,1.12866-4.0993,2.9657-5.17621l12.0343-7.05457,8.0343,4.70978c1.83704,1.0769,2.9657,3.04675,2.9657,5.17621v9.11401c0,1.65686,1.34314,3,3,3s3-1.34314,3-3v-5.54376c0-1.54553,1.67816-2.50702,3.01141-1.7254l3.01147,1.76532c1.22467.7179,1.97711,2.03119,1.97711,3.45081v5.05304c0,1.10455.89545,2,2,2s2-.89545,2-2v-10.56232c0-2.12946-1.12866-4.0993-2.9657-5.17621Z"></path>
  <path fill="#123551" d="M59 17c-1.6543 0-3-1.3457-3-3s1.3457-3 3-3 3 1.3457 3 3-1.3457 3-3 3zm0-4c-.55127 0-1 .44873-1 1s.44873 1 1 1 1-.44873 1-1-.44873-1-1-1zM58.54004 36.39893l-4.54004-2.66168v-9.92151c1.1615-.41412 2-1.51379 2-2.81573 0-1.6543-1.3457-3-3-3h-10c-1.6543 0-3 1.3457-3 3 0 1.30194.8385 2.40155 2 2.81567v2.64825c-.18567-.02911-.36353-.05847-.55713-.08746 0 0-5.90283-3.46045-5.90283-3.46033-2.6557-1.59747-5.76483-1.06213-8.21289.66394-4.90723.00879-8.62646 2.18994-10.52881 6.17236-.72089.31384-1.99237.19281-2.79834.24756-3.39014 0-5.54346 1.77637-5.97949 4.89746l-2.56055 1.50146c-2.13428 1.25098-3.45996 3.56494-3.45996 6.03857v11.5625c0 1.47382.81024 2.74963 2 3.44354v3.55646c0 .55225.44775 1 1 1h54c.55225 0 1-.44775 1-1v-5.19733c1.07593-.3512 1.95959-1.28168 2-2.80267v-10.5625c0-2.47363-1.32568-4.7876-3.45996-6.03857zm-15.54004-16.39893h10c.55127 0 1 .44873 1 1s-.44873 1-1 1h-10c-.55127 0-1-.44873-1-1s.44873-1 1-1zm1 4h8v8.46497c-1.97473-3.58887-3.78394-4.80481-8-5.64899v-2.81598zM6 60v-2c2.20557 0 4-1.79443 4-4v-3.94409l2-1.17242v2.11652c0 1.6543 1.3457 3 3 3s3-1.3457 3-3v-5.63373l14-8.20709 10 5.86237v6.97845c0 2.20557 1.79443 4 4 4s4-1.79443 4-4v-2.28894l6 3.51709c0 .96594 0 1.77179 0 1.77173.04053 1.52283.92419 2.45306 2 2.80353v4.19659H6zm6-13.43518l-2 1.17242v-2.73724c.02264-1.31512 1.97845-1.31207 2 0v1.56482zm6.0127-3.5246c.06586-1.69403.9895-3.26166 2.45898-4.12274l11.52832-6.7583 7.52832 4.41357c1.4696.86115 2.39331 2.42859 2.45905 4.12274l-9.48151-5.55829c-.3125-.18262-.69922-.18262-1.01172 0l-13.48145 7.90302zm37.9873 5.86932l-6-3.51709v-.9364c0-.52295.35156-.78076.50293-.86768.15088-.08691.55176-.25928 1.00244.00537l3.01172 1.76514c.91455.53613 1.48291 1.52783 1.48291 2.58789v.96277zm4 4.09039c-.01526 1.32031-1.99365 1.30139-2 .00006v-5.05322c0-1.76709-.94678-3.41992-2.47119-4.31348 0 0-3.01172-1.76514-3.01166-1.76508-1.89709-1.2027-4.59796.33917-4.51715 2.58783v5.54395c0 1.10303-.89697 2-2 2s-2-.89697-2-2v-9.11426c0-2.47363-1.32568-4.7876-3.45996-6.03857l-8.03418-4.70996c-.3125-.18262-.69922-.18262-1.01172 0l-12.03418 7.05469c-2.13428 1.25098-3.45996 3.56494-3.45996 6.03906 0 0 0 7.76904 0 7.76898-.02783 1.31787-1.97125 1.31171-2 .00006v-6c0-1.6543-1.3457-3-3-3s-3 1.3457-3 3c0 0 0 9 0 8.99994-.07428 2.64093-3.92438 2.6358-4 .00006v-11.5625c0-1.76709.94678-3.41943 2.47168-4.31299l2.99512-1.75635c.2832-.1665.4668-.46094.49127-.78845.37799-4.66656 4.04193-3.57971 7.47156-3.87958.37921-.03314.90979-.46338 1.05865-.83734 1.93311-4.34082 5.84277-5.28271 8.86914-5.28271.25916.0105.52808.01276.74414-.13525l1.37012-.80322c1.55859-.91553 3.49609-.91553 5.05664 0 0 0 6.08008 3.56396 6.08002 3.56415 3.42438.591 6.68671 1.31964 7.68463 2.50128.78955.78955 1.51074 1.82422 2.14355 3.07471.08643.17139.2207.31445.38623.41162l6.70557 3.93115c1.5249.89355 2.47168 2.5459 2.47168 4.31299 0 0 0 10.5625 0 10.56244z"></path>
</svg>
